<?xml version="1.0" encoding="UTF-8"?>
<svg id="Layer_2" data-name="Layer 2" xmlns="http://www.w3.org/2000/svg" xmlns:xlink="http://www.w3.org/1999/xlink" viewBox="0 0 169.99 40.75">
  <defs>
    <style>
      .cls-1 {
        fill: url(#linear-gradient);
      }

      .cls-1, .cls-2 {
        stroke-width: 0px;
      }

      .cls-2 {
        fill: #fff;
      }
		
		@keyframes gradientAnimation {
            0% { stop-color: springgreen; }
			25% { stop-color: turquoise; }
            50% { stop-color: magenta; }
			75% { stop-color: orange; }
            100% { stop-color: springgreen; }
        }
        #linear-gradient stop {
            animation: gradientAnimation 20s infinite;
        }		
		
    </style>
    <linearGradient id="linear-gradient" x1="0" y1="20.37" x2="169.99" y2="20.37" gradientUnits="userSpaceOnUse">
      <stop offset="0" stop-color="#000"/>
		<stop offset=".23" stop-color="#fa8585"/>
      <stop offset=".48" stop-color="#fa8585"/>
		<stop offset=".73" stop-color="#fa8585"/>
      <stop offset="1" stop-color="#000"/>
    </linearGradient>
  </defs>
  <g id="Layer_1-2" data-name="Layer 1">
    <path class="cls-1" d="M168.52,0H1.46C.66,0,0,.66,0,1.46v37.82c0,.81.66,1.46,1.46,1.46h167.06c.81,0,1.46-.66,1.46-1.46V1.46c0-.81-.66-1.46-1.46-1.46ZM109.28,37.36H3.39V3.39h105.89v33.97ZM123.54,29.99h-3.26v-10.58c0-.7-.57-1.27-1.3-1.27h-3.17v-3.1h3.29c2.53,0,4.43,1.74,4.43,4.24v10.71ZM143.3,25.75c0,2.5-1.2,3.88-3.7,3.88h-7.82c-2.53,0-4.21-1.38-4.21-3.88v-7.26c0-2.53,1.68-3.66,4.21-3.66h7.82c2.5,0,3.7,1.13,3.7,3.63v7.3ZM162.79,25.72c0,2.53-1.9,4.28-4.4,4.28h-4.4c-1.46,0-2.79-1.43-2.98-2.82l-.7,2.82h-2.47V9.09h3.26v5.96h7.29c2.5,0,4.4,1.77,4.4,4.28v6.4ZM84.66,29.99h-3.26v-14.95h3.26v14.95ZM11.23,25.24v-.95h3.26v.98c0,.89.73,1.62,1.65,1.62h7.35c.92,0,1.65-.73,1.65-1.65v-2.6c0-.89-.73-1.62-1.65-1.62h-7.32c-2.69,0-4.78-2.06-4.78-4.78v-1.77c0-2.69,2.06-4.75,4.78-4.75h7.44c2.72,0,4.78,2.06,4.78,4.75v.95h-3.26v-.98c0-.89-.73-1.62-1.65-1.62h-7.19c-.92,0-1.65.73-1.65,1.62v1.9c0,.86.76,1.58,1.65,1.58h7.32c2.72,0,4.78,2.06,4.78,4.75v2.53c0,2.72-2.06,4.78-4.78,4.78h-7.6c-2.72,0-4.78-2.06-4.78-4.75ZM32.04,25.87v-14.57h3.26v3.74h4.37v3.1h-4.37v7.48c0,.7.57,1.27,1.3,1.27h4.43v3.1h-4.69c-2.53,0-4.31-1.62-4.31-4.12ZM43.89,25.78v-10.74h3.26v10.58c0,.73.57,1.27,1.27,1.27h5.89c.7,0,1.27-.54,1.27-1.27v-10.58h3.26v10.74c0,2.53-1.93,4.21-4.43,4.21h-6.08c-2.5,0-4.43-1.68-4.43-4.21ZM67.05,29.99h4.4c1.46,0,2.79-1.43,2.98-2.82l.7,2.82h2.47V9.09h-3.26v5.96h-7.29c-2.5,0-4.4,1.77-4.4,4.28v6.4c0,2.53,1.9,4.28,4.4,4.28ZM84.66,12.25h-3.26v-3.17h3.26v3.17ZM92.9,29.99h6.08c2.5,0,4.43-1.74,4.43-4.24v-6.46c0-2.5-1.93-4.24-4.43-4.24h-6.08c-2.53,0-4.43,1.74-4.43,4.28v6.43c0,2.5,1.9,4.24,4.43,4.24ZM159.53,19.44v6.15c0,.73-.57,1.3-1.27,1.3h-7.16v-8.74h7.16c.7,0,1.27.6,1.27,1.3ZM139.28,17.6l-8.93,7.84v-5.99c0-.73.83-1.85,1.56-1.85h7.37ZM131.87,26.87l8.65-7.37v6.12c0,.7-.35,1.23-1.05,1.23h-7.57s-.02.02-.03.02ZM91.73,19.44c0-.73.57-1.3,1.3-1.3h5.83c.7,0,1.3.57,1.3,1.27v6.21c0,.7-.6,1.27-1.3,1.27h-5.83c-.73,0-1.3-.57-1.3-1.27v-6.18ZM65.91,19.44c0-.7.57-1.3,1.27-1.3h7.16v8.74h-7.16c-.7,0-1.27-.57-1.27-1.3v-6.15Z"/>
  </g>
</svg>